<?xml version="1.0" encoding="utf-8"?>
<!-- Generator: Adobe Illustrator 22.0.1, SVG Export Plug-In . SVG Version: 6.00 Build 0)  -->
<svg version="1.1" id="Calque_1" xmlns="http://www.w3.org/2000/svg" xmlns:xlink="http://www.w3.org/1999/xlink" x="0px" y="0px"
	 viewBox="0 0 20 20" style="enable-background:new 0 0 20 20;" xml:space="preserve">
<style type="text/css">
	.st0{fill:#808093;}
</style>
<path class="st0" d="M14.3,14.1l-4.1-3.6l4.1-3.6c0.2-0.2,0.2-0.5,0-0.7s-0.5-0.2-0.7,0L9.5,9.8L5.3,6.1C5.1,5.9,4.8,6,4.6,6.2
	s-0.2,0.5,0,0.7l4.1,3.6l-4.1,3.6c-0.2,0.2-0.2,0.5,0,0.7C4.7,14.9,4.9,15,5,15c0.1,0,0.2,0,0.3-0.1l4.2-3.7l4.2,3.7
	C13.8,15,13.9,15,14,15c0.1,0,0.3-0.1,0.4-0.2C14.6,14.6,14.5,14.3,14.3,14.1z"/>
<path class="st0" d="M9.5,20c-2.5,0-4.9-1-6.7-2.8S0,13,0,10.5C0,8,1,5.6,2.8,3.8S7,1,9.5,1s4.9,1,6.7,2.8S19,8,19,10.5
	s-1,4.9-2.8,6.7S12,20,9.5,20z M9.5,2C4.8,2,1,5.8,1,10.5S4.8,19,9.5,19s8.5-3.8,8.5-8.5S14.2,2,9.5,2z"/>
</svg>
