<svg xmlns="http://www.w3.org/2000/svg" width="17.47" height="17" viewBox="0 0 17.47 17">
  <metadata><?xpacket begin="﻿" id="W5M0MpCehiHzreSzNTczkc9d"?>
<x:xmpmeta xmlns:x="adobe:ns:meta/" x:xmptk="Adobe XMP Core 5.6-c140 79.160451, 2017/05/06-01:08:21        ">
   <rdf:RDF xmlns:rdf="http://www.w3.org/1999/02/22-rdf-syntax-ns#">
      <rdf:Description rdf:about=""/>
   </rdf:RDF>
</x:xmpmeta>
                                                                                                    
                                                                                                    
                                                                                                    
                                                                                                    
                                                                                                    
                                                                                                    
                                                                                                    
                                                                                                    
                                                                                                    
                                                                                                    
                                                                                                    
                                                                                                    
                                                                                                    
                                                                                                    
                                                                                                    
                                                                                                    
                                                                                                    
                                                                                                    
                                                                                                    
                                                                                                    
                           
<?xpacket end="w"?></metadata>
<defs>
    <style>
      .cls-1 {
        fill: #808093;
        fill-rule: evenodd;
      }
    </style>
  </defs>
  <path id="instagram" class="cls-1" d="M1455.33,63h-11.17a3.1,3.1,0,0,1-3.15-3.058V49.069a3.1,3.1,0,0,1,3.15-3.058h11.17a3.1,3.1,0,0,1,3.15,3.058V59.942A3.1,3.1,0,0,1,1455.33,63Zm-10.13-1.7h9.09a2.409,2.409,0,0,0,2.44-2.379V52.806h-13.97v6.116A2.409,2.409,0,0,0,1445.2,61.3Zm8.39-13.239h2.79V50.75h-2.79V48.063Zm-3.85,1.686a4.759,4.759,0,1,1-4.88,4.757A4.819,4.819,0,0,1,1449.74,49.748Zm-0.01,2.033a2.735,2.735,0,1,1-2.79,2.734A2.766,2.766,0,0,1,1449.73,51.781Z" transform="translate(-1441 -46)"/>
</svg>
