<svg xmlns="http://www.w3.org/2000/svg" width="13.34" height="17" viewBox="0 0 13.34 17">
  <metadata><?xpacket begin="﻿" id="W5M0MpCehiHzreSzNTczkc9d"?>
<x:xmpmeta xmlns:x="adobe:ns:meta/" x:xmptk="Adobe XMP Core 5.6-c140 79.160451, 2017/05/06-01:08:21        ">
   <rdf:RDF xmlns:rdf="http://www.w3.org/1999/02/22-rdf-syntax-ns#">
      <rdf:Description rdf:about=""/>
   </rdf:RDF>
</x:xmpmeta>
                                                                                                    
                                                                                                    
                                                                                                    
                                                                                                    
                                                                                                    
                                                                                                    
                                                                                                    
                                                                                                    
                                                                                                    
                                                                                                    
                                                                                                    
                                                                                                    
                                                                                                    
                                                                                                    
                                                                                                    
                                                                                                    
                                                                                                    
                                                                                                    
                                                                                                    
                                                                                                    
                           
<?xpacket end="w"?></metadata>
<defs>
    <style>
      .cls-1 {
        fill: #808093;
        fill-rule: evenodd;
      }
    </style>
  </defs>
  <path id="pinterest" class="cls-1" d="M1481.95,55.525a2.016,2.016,0,0,0,1.4,1.019c0.92,0.109,3.43-1.542,3.49-4.417s-0.56-3.7-3.14-4.417a4.4,4.4,0,0,0-5.59,2.719c-0.92,2.507-.17,3.112.35,3.738l-0.35,1.7a3.634,3.634,0,0,1-2.45-3.4c0.06-2.571,1.57-6.461,6.99-6.461a6.116,6.116,0,0,1,6.28,6.8c-0.38,1.811-.67,4.26-4.54,5.1,0,0-2.56.655-3.14-1.359V54.5Zm-2.1-2.039s-0.95-3.322,1.4-3.738c0,0,1.91-.445,1.4,2.039,0,0-1.84,7.82-2.45,8.834a22.464,22.464,0,0,1-1.74,2.368s0.32-3.053.35-3.727C1478.84,58.222,1479.85,53.486,1479.85,53.486Z" transform="translate(-1475.66 -46)"/>
</svg>
