<svg xmlns="http://www.w3.org/2000/svg" width="17.5" height="13.938" viewBox="0 0 17.5 13.938">
  <metadata><?xpacket begin="﻿" id="W5M0MpCehiHzreSzNTczkc9d"?>
<x:xmpmeta xmlns:x="adobe:ns:meta/" x:xmptk="Adobe XMP Core 5.6-c140 79.160451, 2017/05/06-01:08:21        ">
   <rdf:RDF xmlns:rdf="http://www.w3.org/1999/02/22-rdf-syntax-ns#">
      <rdf:Description rdf:about=""/>
   </rdf:RDF>
</x:xmpmeta>
                                                                                                    
                                                                                                    
                                                                                                    
                                                                                                    
                                                                                                    
                                                                                                    
                                                                                                    
                                                                                                    
                                                                                                    
                                                                                                    
                                                                                                    
                                                                                                    
                                                                                                    
                                                                                                    
                                                                                                    
                                                                                                    
                                                                                                    
                                                                                                    
                                                                                                    
                                                                                                    
                           
<?xpacket end="w"?></metadata>
<defs>
    <style>
      .cls-1 {
        fill: #acacbd;
        fill-rule: evenodd;
      }
    </style>
  </defs>
  <path id="twitter" class="cls-1" d="M1421.8,49.748l1.76-.34a14.342,14.342,0,0,1-1.76,1.7s0,0-.01,0a6.169,6.169,0,0,0,.01,1.021c-3.36,14.008-15.73,7.815-15.73,7.815,4.5,0.116,4.91-1.7,4.91-1.7-2.64-.387-3.15-2.038-3.15-2.038a1.118,1.118,0,0,0,1.4-.34,3.063,3.063,0,0,1-2.45-3.4,3.436,3.436,0,0,0,1.72.644c-0.32-.363-2.98-3.458-1.37-5.061,0,0,1.94,3.392,7.08,3.717l0.34-.083a3.563,3.563,0,0,1,3.59-4.312c2.44,0,2.96,1.359,2.96,1.359l1.75-1.019S1422.66,49.413,1421.8,49.748Z" transform="translate(-1406.06 -47.375)"/>
</svg>
